<?xml version="1.0" encoding="utf-8"?>
<!-- Generator: Adobe Illustrator 19.2.0, SVG Export Plug-In . SVG Version: 6.00 Build 0)  -->
<svg version="1.1" id="Layer_1" xmlns="http://www.w3.org/2000/svg" xmlns:xlink="http://www.w3.org/1999/xlink" x="0px" y="0px"
	 viewBox="0 0 960 960" style="enable-background:new 0 0 960 960;" xml:space="preserve">
<style type="text/css">
	.st0{fill:none;stroke:#FFFFFF;stroke-width:49.6479;stroke-miterlimit:10;}
	.st1{fill:#FC4349;}
	.st2{fill:#E6E6E6;}
	.st3{fill:#FFFFFF;}
	.st4{fill:#F2F2F2;}
</style>
<g id="Layer_1_1_">
	<g>
		<path class="st0" d="M601.1,309.9H358.9v-48.7c0-29.8,24.4-54.3,54.3-54.3h135.1c29.2,0,52.9,23.7,52.9,52.9v50.1H601.1z"/>
		<rect x="228.8" y="251.7" class="st1" width="80.7" height="49.2"/>
		<rect x="336.5" y="269.6" class="st2" width="44.9" height="40.3"/>
		<rect x="578.7" y="269.6" class="st2" width="44.9" height="40.3"/>
		<rect x="646" y="251.7" class="st1" width="80.7" height="49.2"/>
		<path class="st2" d="M748.3,753.1H211.7c-30.2,0-54.7-24.5-54.7-54.7v-316c0-30.2,24.5-54.7,54.7-54.7h536.6
			c30.2,0,54.7,24.5,54.7,54.7v316C802.9,728.6,778.5,753.1,748.3,753.1z"/>
		<path class="st3" d="M748.3,708.3H211.7c-30.2,0-54.7-24.5-54.7-54.7v-316c0-30.2,24.5-54.7,54.7-54.7h536.6
			c30.2,0,54.7,24.5,54.7,54.7v316C802.9,683.8,778.5,708.3,748.3,708.3z"/>
		<ellipse class="st1" cx="482.2" cy="495.5" rx="128.9" ry="128.7"/>
		<polygon class="st3" points="560.7,466.6 511.4,466.6 511.4,417.3 453.1,417.3 453.1,466.6 403.7,466.6 403.7,524.8 453.1,524.8 
			453.1,574 511.4,574 511.4,524.8 560.7,524.8 		"/>
		<g>
			<path class="st4" d="M271.1,283h-64.7c-24.7,0-45.1,18.2-48.7,41.9v78.2L271.1,283z"/>
			<path class="st4" d="M157.7,666.4c3.6,23.7,24,41.9,48.7,41.9h64.7L157.7,588.2V666.4z"/>
			<path class="st4" d="M802.9,332.4c0-27.2-22.1-49.3-49.3-49.3h-64.1l113.4,120L802.9,332.4L802.9,332.4z"/>
			<path class="st4" d="M753.6,708.3c27.2,0,49.3-22.1,49.3-49.3v-70.7l-113.4,120H753.6z"/>
		</g>
	</g>
</g>
</svg>
