<?xml version="1.0" encoding="iso-8859-1"?>
<!-- Generator: Adobe Illustrator 16.0.0, SVG Export Plug-In . SVG Version: 6.00 Build 0)  -->
<!DOCTYPE svg PUBLIC "-//W3C//DTD SVG 1.1//EN" "http://www.w3.org/Graphics/SVG/1.1/DTD/svg11.dtd">
<svg version="1.1" id="Capa_1" xmlns="http://www.w3.org/2000/svg" xmlns:xlink="http://www.w3.org/1999/xlink" x="0px" y="0px"
	 width="551.488px" height="551.488px" viewBox="0 0 551.488 551.488" style="enable-background:new 0 0 551.488 551.488;"
	 xml:space="preserve">
<g>
	<g>
		<path d="M185.431,467.252l1.625-5.67c1.454-5.078-0.325-6.904-2.372-2.975c-1.224,2.354-1.893,4.926-1.893,7.707
			c0,0,0,2.268,0,5.068C182.801,474.176,183.978,472.33,185.431,467.252z"/>
		<path d="M132.646,215.003v118.03c0,37.973,30.877,68.85,68.84,68.85c0,0,0.631,0,1.406,0c0.784,0,0.229,4.111-1.224,9.189
			l-27.674,96.582c-5.23,18.207,5.327,37.266,23.534,42.486c3.079,0.889,6.273,1.348,9.486,1.348c15.243,0,28.802-10.242,33.02-24.9
			l6.914-24.137c1.453-5.076,6.914-9.189,12.192-9.189h101.621c4.37,0,7.938-3.557,7.938-7.918v-19.037
			c0-17.711-26.967-26.967-53.617-26.967c0,0-1.062,0-2.381,0c-1.311,0-2.382-4.285-2.382-9.562v-18.332
			c0-5.277,4.284-9.562,9.562-9.562h30.104c37.973,0,68.859-30.877,68.859-68.85v-118.03c0-4.37-3.567-7.928-7.938-7.928
			c-4.351,0-7.917,3.558-7.917,7.928v118.03c0,29.223-23.772,52.996-53.005,52.996H302.39h-12.518c-5.278,0-9.361-0.709-9.113-1.578
			l0.449-1.578l2.831-9.879c1.454-5.076,6.923-9.189,12.202-9.189h15.653c37.973,0,68.859-30.877,68.859-68.85V135.042
			c0-15.061-3.442-29.318-9.495-42.113c-2.257-4.771-3.318-12.556-1.855-17.633l9.037-31.527
			c5.211-18.217-5.365-37.275-23.572-42.486C351.915,0.43,348.874,0,345.775,0c-15.242,0-29.28,10.452-33.392,24.824
			c0,0-0.947,3.309-2.113,7.382c-1.167,4.083-6.245,6.282-11.438,5.316c-5.833-1.08-11.925-1.797-17.403-1.797h-11.408
			c-54.765,0-99.326,44.551-99.326,99.316v159.923c0,26.24,15.271,49.008,37.036,60.607c4.657,2.486,7.535,8.023,6.082,13.1
			l-2.343,8.168c-1.454,5.076-4.284,9.189-6.321,9.189h-3.682c-29.232,0-52.986-23.773-52.986-52.996v-118.03
			c0-4.37-3.567-7.928-7.937-7.928C136.203,207.076,132.646,210.633,132.646,215.003z M352.851,466.314c0,0,0,2.486,0,5.557
			s-4.284,5.557-9.562,5.557H263.71c-5.279,0-8.387-4.113-6.923-9.189l1.1-3.836c1.454-5.078,6.914-9.189,12.202-9.189h32.331h12.68
			C339.455,455.193,352.851,463.543,352.851,466.314z M294.462,411.445v18.332c0,5.277-4.283,9.562-9.562,9.562h-10.289
			c-5.278,0-8.386-4.111-6.923-9.189l5.47-19.068c1.453-5.078,6.818-9.189,11.973-9.189
			C290.284,401.883,294.462,406.168,294.462,411.445z M311.915,347.961h-11.093c-5.278,0-8.387-4.113-6.924-9.189L298,324.455
			l4.705-16.408l54.831-191.298c1.454-5.078,4.112-5.164,5.298-0.01c1.349,5.891,2.085,12.011,2.085,18.303v159.923
			C364.919,324.188,341.137,347.961,311.915,347.961z M186.569,135.042c0-46.015,37.447-83.461,83.462-83.461h11.408
			c4.045,0,8.577,0.497,13.005,1.252c5.202,0.89,8.166,6.111,6.713,11.188l-54.65,190.628l-5.565,17.538l-16.993,59.231
			c0,0-0.727,2.83-1.616,6.32c-0.89,3.49-5.652,4.809-10.146,2.037c-15.138-9.334-25.627-25.877-25.627-44.82V135.042H186.569z
			 M327.635,29.185c2.257-7.889,9.562-13.387,17.758-13.387c1.721,0,3.433,0.249,5.115,0.727
			c9.802,2.802,15.501,13.072,12.699,22.883L224.8,522.217c-2.218,7.746-9.84,13.35-18.102,13.35c-1.645,0-3.251-0.209-4.8-0.65
			c-9.783-2.82-15.482-13.08-12.661-22.883L327.635,29.185z"/>
	</g>
</g>
<g>
</g>
<g>
</g>
<g>
</g>
<g>
</g>
<g>
</g>
<g>
</g>
<g>
</g>
<g>
</g>
<g>
</g>
<g>
</g>
<g>
</g>
<g>
</g>
<g>
</g>
<g>
</g>
<g>
</g>
</svg>
